<?xml version="1.0" standalone="no"?>
<!DOCTYPE svg PUBLIC "-//W3C//DTD SVG 20010904//EN"
 "http://www.w3.org/TR/2001/REC-SVG-20010904/DTD/svg10.dtd">
<svg version="1.0" xmlns="http://www.w3.org/2000/svg"
 width="260.000000pt" height="260.000000pt" viewBox="0 0 260.000000 260.000000"
 preserveAspectRatio="xMidYMid meet">
<metadata>
Created by potrace 1.14, written by Peter Selinger 2001-2017
</metadata>
<g transform="translate(0.000000,260.000000) scale(0.100000,-0.100000)"
fill="#000000" stroke="none">
<path d="M1555 2199 c-147 -22 -325 -108 -325 -156 0 -19 14 -16 35 7 78 87
340 151 495 122 60 -11 91 0 46 18 -40 15 -182 20 -251 9z"/>
<path d="M1840 2166 c0 -8 13 -17 29 -21 45 -10 177 -101 223 -155 44 -52 58
-60 58 -36 0 31 -131 144 -214 186 -91 45 -96 46 -96 26z"/>
<path d="M1182 2038 c5 -15 28 -18 29 -3 0 6 -7 12 -17 13 -10 3 -15 -1 -12
-10z"/>
<path d="M1098 2022 c-14 -9 -37 -29 -51 -42 -13 -14 -44 -44 -69 -68 -60 -57
-100 -130 -97 -179 3 -43 -31 -93 -61 -93 -37 0 -69 -77 -40 -95 6 -3 10 -11
10 -17 0 -6 -10 -2 -22 10 -93 86 -262 36 -320 -95 -15 -35 -18 -58 -14 -103
3 -32 9 -66 13 -76 21 -59 89 -114 138 -114 l28 0 -34 -23 c-74 -49 -99 -129
-58 -181 15 -19 30 -26 57 -26 l37 -1 -40 -20 c-58 -29 -112 -100 -129 -173
-9 -37 10 -93 35 -101 12 -4 19 -15 19 -33 0 -41 36 -91 77 -108 32 -14 41
-14 74 -1 25 10 41 11 47 5 9 -9 65 -8 102 3 9 2 20 -8 29 -29 8 -17 18 -32
23 -32 14 0 9 44 -8 68 -14 20 -13 25 17 68 40 59 121 223 143 292 19 57 22
58 50 37 43 -32 51 -2 10 36 -15 13 -38 49 -52 79 -22 46 -26 69 -25 140 0 94
14 134 59 169 30 23 73 28 78 9 2 -7 18 -92 36 -188 37 -204 50 -260 91 -395
36 -117 67 -155 125 -155 27 0 41 -7 60 -30 14 -16 43 -35 65 -42 34 -10 45
-9 76 6 42 20 55 10 46 -36 -6 -31 10 -38 25 -11 6 10 16 14 26 10 9 -4 28 -2
42 3 34 13 153 128 211 202 24 32 51 58 59 58 52 0 177 124 199 198 10 34 -12
27 -31 -10 -29 -57 -74 -107 -121 -135 -43 -25 -49 -26 -91 -14 -113 30 -309
130 -422 214 -77 58 -191 160 -269 240 -132 137 -193 203 -220 242 -50 72
-131 227 -131 252 0 35 32 91 90 158 61 69 80 85 138 114 23 12 42 24 42 26 0
12 -47 3 -72 -13z m-173 -578 c25 -57 32 -99 17 -108 -6 -4 -53 9 -141 40 -9
3 -10 8 -4 17 6 6 11 39 11 72 1 45 9 75 34 125 l32 65 13 -78 c7 -42 24 -102
38 -133z m-202 93 c45 -19 54 -35 58 -92 3 -42 1 -50 -14 -53 -21 -4 -277 69
-277 79 0 15 55 60 84 68 47 14 113 13 149 -2z m-2 -182 c3 -2 -14 -44 -38
-93 l-44 -89 -39 7 c-50 9 -81 30 -117 77 -23 29 -28 46 -26 85 0 27 4 59 7
72 l6 24 122 -40 c68 -22 126 -41 129 -43z m131 -41 c40 -14 76 -29 80 -33 3
-3 8 -61 9 -127 l3 -122 -38 -46 c-51 -63 -127 -106 -187 -106 -30 0 -51 6
-59 15 -19 23 -7 194 19 275 22 70 76 170 91 170 5 0 42 -12 82 -26z"/>
<path d="M1204 1987 c-7 -18 26 -101 81 -205 90 -169 281 -393 434 -509 90
-67 148 -89 71 -25 -100 82 -286 273 -359 370 -76 101 -167 259 -191 334 -13
42 -27 56 -36 35z"/>
<path d="M2160 1925 c0 -3 21 -32 46 -63 84 -102 144 -251 144 -355 0 -129
-55 -284 -130 -369 -28 -32 -37 -49 -28 -54 30 -19 141 170 169 286 37 156 -8
350 -113 482 -29 37 -88 86 -88 73z"/>
<path d="M1164 1744 c-53 -35 -91 -71 -125 -118 -49 -67 -32 -64 30 5 33 36
80 76 105 90 25 13 46 30 46 36 0 19 -13 16 -56 -13z"/>
<path d="M1309 1506 c-80 -67 -145 -134 -137 -142 4 -3 33 18 65 48 32 29 79
70 106 92 44 36 58 56 39 56 -4 0 -37 -24 -73 -54z"/>
<path d="M1494 1254 c-49 -52 -90 -100 -92 -105 -9 -25 21 -1 94 74 95 97 108
113 96 121 -5 3 -49 -38 -98 -90z"/>
<path d="M1850 1181 c0 -15 138 -87 199 -105 68 -20 111 -21 111 -2 0 9 -19
15 -57 19 -41 4 -85 20 -148 51 -95 48 -105 52 -105 37z"/>
<path d="M1776 1135 c-10 -19 -48 -64 -84 -100 -35 -36 -62 -68 -59 -71 20
-20 175 150 177 194 0 23 -15 12 -34 -23z"/>
<path d="M2185 1029 c-4 -22 -4 -43 0 -47 10 -10 25 20 25 50 0 43 -18 42 -25
-3z"/>
<path d="M1976 1023 c-10 -36 -57 -103 -100 -141 -39 -34 -43 -42 -22 -42 33
0 146 151 146 195 0 25 -17 17 -24 -12z"/>
<path d="M1285 446 c-268 -39 -564 -141 -656 -227 -18 -17 -57 -40 -87 -51
-30 -11 -102 -52 -160 -92 -91 -62 -102 -71 -79 -74 18 -2 43 10 84 40 60 44
198 118 220 118 7 0 13 7 13 15 0 8 5 15 11 15 5 0 34 11 64 24 62 29 199 76
220 76 25 0 28 21 4 27 -19 5 -15 9 31 25 29 10 55 16 58 14 8 -9 -10 -26 -28
-26 -18 0 -36 -17 -28 -26 3 -2 29 0 59 6 30 5 65 12 79 14 14 3 41 5 60 5 39
1 73 19 53 28 -18 7 -16 40 3 47 27 10 34 7 34 -19 0 -14 -4 -25 -10 -25 -5 0
-10 -4 -10 -10 0 -6 49 -10 128 -10 143 0 285 -15 345 -36 51 -18 54 -18 62 6
9 29 -31 108 -64 125 -40 20 -293 27 -406 11z m119 -47 c-3 -38 -7 -43 -36
-36 -19 5 -23 12 -22 34 1 15 3 29 3 31 1 1 14 2 29 2 25 0 28 -3 26 -31z m70
4 c-1 -16 -3 -32 -3 -36 -1 -5 -11 -7 -23 -5 -16 2 -23 11 -25 36 -4 29 -2 32
24 32 25 0 28 -3 27 -27z m78 -8 c-4 -31 -8 -35 -33 -35 -26 0 -29 3 -29 35 0
33 2 35 33 35 32 0 33 -1 29 -35z m52 29 c10 -4 16 -18 16 -40 0 -30 -3 -34
-25 -34 -22 0 -25 4 -25 40 0 40 5 45 34 34z m-282 -19 c0 -8 1 -20 2 -26 1
-7 -14 -13 -31 -15 -31 -4 -33 -2 -33 26 0 27 3 30 30 30 19 0 31 -5 32 -15z
m347 -7 c10 -27 3 -58 -13 -58 -7 0 -11 16 -11 40 0 44 11 52 24 18z m-499
-18 c0 -16 -7 -20 -30 -20 -33 0 -43 25 -12 33 34 9 42 7 42 -13z m-80 -22 c0
-5 -13 -8 -30 -8 -36 0 -42 27 -7 32 21 3 36 -7 37 -24z m616 -25 c-10 -10
-19 5 -10 18 6 11 8 11 12 0 2 -7 1 -15 -2 -18z"/>
<path d="M835 395 c-3 -8 -7 -22 -10 -30 -2 -8 2 -15 9 -15 12 0 25 28 26 53
0 13 -21 7 -25 -8z"/>
<path d="M1772 238 c61 -165 93 -238 104 -238 10 0 5 23 -17 83 -39 107 -68
167 -81 167 -6 0 -8 -6 -6 -12z"/>
</g>
</svg>
